# Blender v3.6.4 OBJ File: 'hexagon.blend'
# www.blender.org
mtllib hexagon.mtl
o Cylinder
v 0.000000 -0.050000 -1.000000
v 0.000000 0.050000 -0.948720
v 0.866025 -0.050000 -0.500000
v 0.821616 0.050000 -0.474360
v 0.866025 -0.050000 0.500000
v 0.821616 0.050000 0.474360
v 0.000000 -0.050000 1.000000
v 0.000000 0.050000 0.948720
v -0.866025 -0.050000 0.500000
v -0.821616 0.050000 0.474360
v -0.866025 -0.050000 -0.500000
v -0.821616 0.050000 -0.474360
v 0.866025 0.050000 -0.500000
v 0.000000 0.050000 -1.000000
v 0.866025 0.050000 0.500000
v 0.000000 0.050000 1.000000
v -0.866025 0.050000 0.500000
v -0.866025 0.050000 -0.500000
v 0.866025 0.077099 -0.500000
v 0.000000 0.077099 -1.000000
v 0.866025 0.077099 0.500000
v 0.000000 0.077099 1.000000
v -0.866025 0.077099 0.500000
v -0.866025 0.077099 -0.500000
v 0.821616 0.077099 -0.474360
v 0.000000 0.077099 -0.948720
v 0.821616 0.077099 0.474360
v 0.000000 0.077099 0.948720
v -0.821616 0.077099 0.474360
v -0.821616 0.077099 -0.474360
vt 1.000000 0.500000
vt 1.000000 1.000000
vt 0.833333 1.000000
vt 0.833333 0.500000
vt 0.666667 1.000000
vt 0.666667 0.500000
vt 0.500000 1.000000
vt 0.500000 0.500000
vt 0.333333 1.000000
vt 0.333333 0.500000
vt 0.447188 0.363846
vt 0.250000 0.477693
vt 0.052812 0.363846
vt 0.052812 0.136154
vt 0.250000 0.022307
vt 0.447188 0.136154
vt 0.166667 1.000000
vt 0.166667 0.500000
vt -0.000000 1.000000
vt -0.000000 0.500000
vt 0.750000 0.490000
vt 0.957846 0.370000
vt 0.957846 0.130000
vt 0.750000 0.010000
vt 0.542154 0.130000
vt 0.542154 0.370000
vt 0.500000 1.000000
vt 0.333333 1.000000
vt 0.052812 0.136154
vt 0.250000 0.022307
vt 0.166667 1.000000
vt -0.000000 1.000000
vt 0.447188 0.136154
vt 0.250000 0.477693
vt 0.052812 0.363846
vt 0.447188 0.363846
vt 0.457846 0.370000
vt 0.250000 0.490000
vt 0.457846 0.130000
vt 0.250000 0.010000
vt 0.042154 0.130000
vt 0.042154 0.370000
vt 1.000000 1.000000
vt 0.833333 1.000000
vt 0.666667 1.000000
vn 0.5000 0.0000 -0.8660
vn 1.0000 0.0000 0.0000
vn 0.5000 0.0000 0.8660
vn -0.5000 0.0000 0.8660
vn 0.0000 1.0000 0.0000
vn -1.0000 0.0000 0.0000
vn -0.5000 0.0000 -0.8660
vn 0.0000 -1.0000 0.0000
usemtl None
s off
f 1/1/1 14/2/1 13/3/1 3/4/1
f 3/4/2 13/3/2 15/5/2 5/6/2
f 5/6/3 15/5/3 16/7/3 7/8/3
f 7/8/4 16/7/4 17/9/4 9/10/4
f 4/11/5 2/12/5 12/13/5 10/14/5 8/15/5 6/16/5
f 9/10/6 17/9/6 18/17/6 11/18/6
f 11/18/7 18/17/7 14/19/7 1/20/7
f 1/21/8 3/22/8 5/23/8 7/24/8 9/25/8 11/26/8
f 17/9/4 16/7/4 22/27/4 23/28/4
f 8/15/1 10/14/1 29/29/1 28/30/1
f 18/17/6 17/9/6 23/28/6 24/31/6
f 14/19/7 18/17/7 24/31/7 20/32/7
f 6/16/7 8/15/7 28/30/7 27/33/7
f 12/13/3 2/12/3 26/34/3 30/35/3
f 26/34/5 25/36/5 19/37/5 20/38/5
f 25/36/5 27/33/5 21/39/5 19/37/5
f 27/33/5 28/30/5 22/40/5 21/39/5
f 28/30/5 29/29/5 23/41/5 22/40/5
f 29/29/5 30/35/5 24/42/5 23/41/5
f 30/35/5 26/34/5 20/38/5 24/42/5
f 2/12/4 4/11/4 25/36/4 26/34/4
f 13/3/1 14/2/1 20/43/1 19/44/1
f 16/7/3 15/5/3 21/45/3 22/27/3
f 10/14/2 12/13/2 30/35/2 29/29/2
f 15/5/2 13/3/2 19/44/2 21/45/2
f 4/11/6 6/16/6 27/33/6 25/36/6
